HIERARCHY
ROOT Hips
{
	OFFSET 0.00000 0.00000 0.00000
	CHANNELS 6 Xposition Yposition Zposition Zrotation Yrotation Xrotation 
	JOINT LHipJoint
	{
		OFFSET 0 0 0
		CHANNELS 3 Zrotation Yrotation Xrotation
		JOINT LeftHip
		{
			OFFSET 1.24777 -1.64261 0.71711
			CHANNELS 3 Zrotation Yrotation Xrotation
			JOINT LeftKnee
			{
				OFFSET 2.49329 -6.85026 0.00000
				CHANNELS 3 Zrotation Yrotation Xrotation
				JOINT LeftAnkle
				{
					OFFSET 2.36770 -6.50520 0.00000
					CHANNELS 3 Zrotation Yrotation Xrotation
					JOINT LeftToe
					{
						OFFSET 0.14820 -0.40718 2.21395
						CHANNELS 3 Zrotation Yrotation Xrotation
						End Site
						{
							OFFSET 0.00000 -0.00000 1.13491
						}
					}
				}
			}
		}
	}
	JOINT RHipJoint
	{
		OFFSET 0 0 0
		CHANNELS 3 Zrotation Yrotation Xrotation
		JOINT RightHip
		{
			OFFSET -1.18320 -1.64261 0.71711
			CHANNELS 3 Zrotation Yrotation Xrotation
			JOINT RightKnee
			{
				OFFSET -2.46559 -6.77417 0.00000
				CHANNELS 3 Zrotation Yrotation Xrotation
				JOINT RightAnkle
				{
					OFFSET -2.38450 -6.55136 0.00000
					CHANNELS 3 Zrotation Yrotation Xrotation
					JOINT RightToe
					{
						OFFSET -0.17454 -0.47954 2.02925
						CHANNELS 3 Zrotation Yrotation Xrotation
						End Site
						{
							OFFSET -0.00000 -0.00000 1.05076
						}
					}
				}
			}
		}
	}
	JOINT lowerback
	{
		OFFSET 0 0 0
		CHANNELS 3 Zrotation Yrotation Xrotation
		JOINT Chest
		{
			OFFSET -0.02305 1.98660 0.00319
			CHANNELS 3 Zrotation Yrotation Xrotation
			JOINT Chest2
			{
				OFFSET -0.00718 1.99033 -0.00533
				CHANNELS 3 Zrotation Yrotation Xrotation
				JOINT lowerneck
				{
					OFFSET 0 0 0
					CHANNELS 3 Zrotation Yrotation Xrotation
					JOINT Neck
					{
						OFFSET 0.00095 1.61015 0.10698
						CHANNELS 3 Zrotation Yrotation Xrotation
						JOINT Head
						{
							OFFSET -0.01060 1.59924 0.01317
							CHANNELS 3 Zrotation Yrotation Xrotation
							End Site
							{
								OFFSET -0.00458 1.63304 -0.00592
							}
						}
					}
				}
				JOINT LeftCollar
				{
					OFFSET 0 0 0
					CHANNELS 3 Zrotation Yrotation Xrotation
					JOINT LeftShoulder
					{
						OFFSET 3.05381 1.47088 -0.01697
CHANNELS 3 Zrotation Xrotation Yrotation
						JOINT LeftElbow
						{
OFFSET 0 -4.251060 0.000000
CHANNELS 3 Zrotation Xrotation Yrotation
							JOINT LeftWrist
							{
OFFSET 0 -3.275920 0.000000
CHANNELS 3 Zrotation Xrotation Yrotation
								JOINT lhand
								{
									OFFSET 0 0 0
CHANNELS 3 Zrotation Xrotation Yrotation
									JOINT LFingers
									{
OFFSET 0 -0.657810 0.000000
CHANNELS 3 Zrotation Xrotation Yrotation
										End Site
										{
OFFSET 0 -0.530340 0.000000
										}
									}
								}
								JOINT LThumb
								{
OFFSET 0 0.000000 0.000000
CHANNELS 3 Zrotation Xrotation Yrotation
									End Site
									{
OFFSET 0 -0.538440 0.538440
									}
								}
							}
						}
					}
				}
				JOINT RightCollar
				{
					OFFSET 0 0 0
					CHANNELS 3 Zrotation Yrotation Xrotation
					JOINT RightShoulder
					{
						OFFSET -2.83695 1.31619 -0.22674
CHANNELS 3 Zrotation Xrotation Yrotation
						JOINT RightElbow
						{
OFFSET 0 -4.460730 0.000000
CHANNELS 3 Zrotation Xrotation Yrotation
							JOINT RightWrist
							{
OFFSET 0 -3.444160 0.000000
CHANNELS 3 Zrotation Xrotation Yrotation
								JOINT rhand
								{
									OFFSET 0 0 0
CHANNELS 3 Zrotation Xrotation Yrotation
									JOINT RFingers
									{
OFFSET 0 -0.616510 0.000000
CHANNELS 3 Zrotation Xrotation Yrotation
										End Site
										{
OFFSET 0 -0.497050 0.000000
										}
									}
								}
								JOINT RThumb
								{
OFFSET 0 0.000000 0.000000
CHANNELS 3 Zrotation Xrotation Yrotation
									End Site
									{
OFFSET 0 -0.504640 0.504640
									}
								}
							}
						}
					}
				}
			}
		}
	}
}
MOTION
Frames: 10
Frame Time: 0.008333333333333333
15.250200 16.718800 -31.531600 -1.775400 -10.869900 12.159000 0.000000 0.000000 0.000000 -14.281000 -4.411800 -18.906800 2.735300 10.253600 29.802000 3.801700 10.444600 -41.403200 4.177300 12.392600 37.135500 0.000000 0.000000 0.000000 9.981100 7.398700 -19.293800 -3.240900 -11.075200 32.533800 -0.992400 23.024800 -22.644000 -13.664300 -19.009000 71.176600 -2.856200 -1.184500 -2.830400 0.583500 -1.496500 -0.105900 2.137200 -0.770600 1.566800 -1.327300 -1.582600 -10.085400 3.433900 -2.357900 10.409300 1.112500 -0.991400 4.834700 0.000000 -0.000000 0.000000 7.255400 14.133400 -52.440000 41.788000 -49.094200 19.780100 4.998500 -16.997000 -17.414400 0.000000 0.000000 0.000000 -7.125000 0.000000 0.000000 -21.519100 46.265600 0.704500 0.000000 -0.000000 0.000000 -0.660800 5.591500 32.392900 -22.149300 -33.145400 -6.667300 -27.662100 22.243700 21.235700 0.000000 0.000000 0.000000 7.125000 0.000000 -0.000000 1.065000 53.665600 -0.226900
15.143482 16.716602 -31.572408 -1.766901 -11.197425 12.455870 0.000000 0.000000 0.000000 -13.854093 -4.738631 -19.088908 2.724189 10.234584 29.739655 3.814879 10.625343 -41.559712 4.286619 12.531854 37.641065 0.000000 0.000000 0.000000 10.475635 7.704809 -19.346928 -3.162291 -10.953169 32.122262 -1.672669 21.331486 -25.811957 -13.492582 -18.952525 70.648418 -2.951937 -1.291991 -2.939232 0.534247 -1.633939 -0.215689 2.133136 -0.837754 1.524269 -1.274707 -1.416672 -10.055045 3.500685 -2.136551 9.964934 1.140841 -0.881099 4.687331 0.000000 0.000000 0.000000 7.268397 13.748524 -51.823179 39.624492 -47.840161 18.162149 5.255030 -16.550813 -18.373129 0.000000 0.000000 0.000000 -7.125000 0.000000 0.000000 -21.691545 47.190113 1.228298 0.000000 0.000000 0.000000 -0.463597 5.983127 32.794569 -22.642307 -33.694896 -6.939032 -27.716588 21.959142 20.702307 0.000000 0.000000 0.000000 7.125000 0.000000 0.000000 0.881933 53.095196 -0.175535
15.032457 16.712241 -31.612528 -1.765447 -11.498892 12.715667 0.000000 0.000000 0.000000 -13.399852 -4.981927 -19.262192 2.714368 10.217642 29.684467 3.809381 10.828927 -41.645606 4.355081 12.618447 37.956567 0.000000 0.000000 0.000000 10.983873 8.124532 -19.312906 -3.087044 -10.834595 31.724041 -2.366896 19.054845 -28.897811 -13.217948 -18.859234 69.800885 -3.028124 -1.412014 -3.026485 0.482004 -1.789294 -0.316422 2.114360 -0.913841 1.479633 -1.279055 -1.257662 -10.025447 3.602618 -1.921169 9.559203 1.188309 -0.773419 4.553250 0.000000 0.000000 0.000000 7.317706 13.464189 -51.180438 37.704711 -46.644026 16.752304 5.734893 -16.127172 -18.526693 0.000000 0.000000 0.000000 -7.125000 0.000000 0.000000 -21.326078 47.397054 1.318695 0.000000 0.000000 0.000000 -0.269903 6.369344 33.218785 -23.100827 -34.198332 -7.195087 -27.954092 21.897273 20.478084 0.000000 0.000000 0.000000 7.125000 0.000000 0.000000 0.584526 52.896263 -0.113949
14.915740 16.708067 -31.649336 -1.678752 -11.884090 12.929065 0.000000 0.000000 0.000000 -13.054782 -4.990084 -19.450489 2.704067 10.199946 29.626558 3.781536 11.193902 -41.721404 4.242672 12.476398 37.438968 0.000000 0.000000 0.000000 11.272912 9.116669 -19.051575 -3.017233 -10.722789 31.350640 -2.896471 16.991252 -31.226643 -12.945523 -18.762283 68.956065 -3.201902 -1.475223 -3.138807 0.384601 -1.863736 -0.405312 2.106666 -0.950368 1.457949 -1.244275 -1.109207 -9.980409 3.697649 -1.726336 9.208626 1.225411 -0.674643 4.433756 0.000000 0.000000 0.000000 7.447813 13.257046 -50.615255 36.126311 -45.598721 15.613038 7.368184 -15.403020 -17.278860 0.000000 0.000000 0.000000 -7.125000 0.000000 0.000000 -19.351633 46.436634 0.717617 0.000000 0.000000 0.000000 -0.044747 6.685660 33.461198 -23.510682 -34.642431 -7.426642 -27.564986 21.000849 19.988007 0.000000 0.000000 0.000000 7.125000 0.000000 0.000000 0.878887 52.286542 -0.157302
14.799730 16.699953 -31.687173 -1.611701 -12.252720 13.126089 0.000000 0.000000 0.000000 -12.682455 -4.999852 -19.623117 2.696556 10.186815 29.583799 3.766044 11.424418 -41.780177 4.214877 12.441036 37.310437 0.000000 0.000000 0.000000 11.585626 10.218406 -18.726421 -2.955157 -10.622062 31.015721 -3.392326 15.037294 -33.481446 -12.627781 -18.643306 67.965097 -3.356971 -1.544586 -3.225296 0.297267 -1.947830 -0.489991 2.098833 -0.991478 1.426594 -1.201312 -0.958298 -9.927990 3.779754 -1.527604 8.853514 1.256872 -0.574741 4.311461 0.000000 0.000000 0.000000 7.563976 13.050543 -50.040765 34.606789 -44.526474 14.537859 8.192813 -14.759888 -17.389316 0.000000 0.000000 0.000000 -7.125000 0.000000 0.000000 -18.649074 46.648491 0.784818 0.000000 0.000000 0.000000 0.154495 7.025519 33.848947 -23.906063 -35.064491 -7.652669 -27.551511 20.618728 19.764188 0.000000 0.000000 0.000000 7.125000 0.000000 0.000000 0.844712 52.039383 -0.146429
14.682416 16.690381 -31.723576 -1.542712 -12.650317 13.271427 0.000000 0.000000 0.000000 -12.323380 -4.936459 -19.731750 2.684480 10.165861 29.515511 3.748165 11.670992 -41.839398 4.180666 12.397036 37.151363 0.000000 0.000000 0.000000 11.870077 11.468633 -18.326374 -2.909995 -10.547888 30.769801 -3.815317 13.263268 -35.439425 -12.301473 -18.514728 66.940731 -3.510817 -1.596767 -3.287035 0.204080 -2.009568 -0.557754 2.085662 -1.021589 1.397285 -1.138385 -0.807758 -9.868350 3.833282 -1.329519 8.522997 1.275819 -0.476062 4.195289 0.000000 0.000000 0.000000 7.678286 12.883065 -49.450742 33.223019 -43.497177 13.576565 8.757587 -14.034271 -18.061647 0.000000 0.000000 0.000000 -7.125000 0.000000 0.000000 -18.398991 47.362953 1.108508 0.000000 0.000000 0.000000 0.338017 7.344398 34.295461 -24.254519 -35.431950 -7.853740 -27.633356 20.372116 19.690793 0.000000 0.000000 0.000000 7.125000 0.000000 0.000000 0.745121 51.974316 -0.127951
14.564639 16.680830 -31.757698 -1.484914 -13.086523 13.351317 0.000000 0.000000 0.000000 -11.973780 -4.813391 -19.747603 2.668993 10.138884 29.427799 3.728917 11.969421 -41.923833 4.131940 12.333923 36.923828 0.000000 0.000000 0.000000 12.150347 12.728104 -17.888875 -2.881319 -10.500433 30.613044 -4.159068 11.554949 -37.059618 -11.960384 -18.373560 65.862804 -3.647405 -1.626495 -3.316272 0.108993 -2.042738 -0.599745 2.062717 -1.037582 1.373742 -1.059998 -0.659776 -9.860342 3.752903 -1.119519 7.971846 1.367281 -0.388186 4.393735 0.000000 0.000000 0.000000 7.772458 12.745377 -48.826857 31.952560 -42.507612 12.709381 9.112644 -13.196486 -19.188987 0.000000 0.000000 0.000000 -7.125000 0.000000 0.000000 -18.529177 48.485818 1.646045 0.000000 0.000000 0.000000 0.500035 7.616521 34.786983 -24.542114 -35.732196 -8.021031 -27.740541 20.171482 19.724587 0.000000 0.000000 0.000000 7.125000 0.000000 0.000000 0.642393 52.031291 -0.111215
14.447458 16.672334 -31.788790 -1.459018 -13.555368 13.351095 0.000000 0.000000 0.000000 -11.620325 -4.651242 -19.641221 2.651277 10.107834 29.326677 3.703971 12.364001 -42.041475 4.069721 12.252545 36.631487 0.000000 0.000000 0.000000 12.466375 13.756294 -17.480643 -2.868049 -10.478264 30.539936 -4.385126 9.742379 -38.186239 -11.573160 -18.203806 64.628667 -3.740068 -1.634444 -3.300891 0.022626 -2.049659 -0.606261 2.026005 -1.040994 1.359034 -0.907855 -0.505684 -9.837182 3.657795 -0.915925 7.682324 1.340807 -0.292281 4.350013 0.000000 0.000000 0.000000 7.813092 12.623661 -48.133267 30.756581 -41.531586 11.908672 9.192575 -12.264204 -20.679383 0.000000 0.000000 0.000000 -7.125000 0.000000 0.000000 -19.100711 49.913535 2.392484 0.000000 0.000000 0.000000 0.624627 7.822166 35.331084 -24.751013 -35.948324 -8.143286 -27.886938 20.079555 19.912533 0.000000 0.000000 0.000000 7.125000 0.000000 0.000000 0.531356 52.264580 -0.094984
14.331838 16.666445 -31.816503 -1.486675 -14.045632 13.285268 0.000000 0.000000 0.000000 -11.248276 -4.435586 -19.449833 2.636512 10.081939 29.242577 3.645079 12.943875 -42.124394 3.955268 12.100303 36.088213 0.000000 0.000000 0.000000 12.848479 14.331939 -17.190175 -2.866323 -10.475472 30.530620 -4.450368 7.688886 -38.665612 -11.100339 -17.982439 63.105292 -3.759770 -1.625674 -3.247848 -0.045656 -2.038039 -0.575570 1.968497 -1.035452 1.358275 -0.720504 -0.344693 -9.827777 3.513661 -0.705561 7.478167 1.269671 -0.192021 4.265412 0.000000 0.000000 0.000000 7.773573 12.498689 -47.327939 29.594368 -40.540177 11.146122 9.187039 -11.250424 -22.122414 0.000000 0.000000 0.000000 -7.125000 0.000000 0.000000 -19.786950 51.276247 3.167943 0.000000 0.000000 0.000000 0.703407 7.936418 35.903627 -24.872677 -36.073563 -8.214844 -27.960503 19.954843 20.145875 0.000000 0.000000 0.000000 7.125000 0.000000 0.000000 0.505077 52.534008 -0.093650
14.217756 16.663147 -31.841445 -1.560682 -14.517554 13.181273 0.000000 0.000000 0.000000 -10.855395 -4.161075 -19.250555 2.631288 10.072806 29.212889 3.524970 13.710879 -42.062639 3.770557 11.848040 35.197424 0.000000 0.000000 0.000000 13.291395 14.473194 -17.021345 -2.870588 -10.482605 30.554221 -4.370386 5.435344 -38.588325 -10.519094 -17.690083 61.207670 -3.711211 -1.612730 -3.169271 -0.093350 -2.024013 -0.519881 1.894394 -1.029000 1.367305 -0.538801 -0.179036 -9.824200 3.345683 -0.486905 7.299731 1.192400 -0.088684 4.191958 0.000000 0.000000 0.000000 7.654858 12.361270 -46.413354 28.441892 -39.517595 10.404491 9.109336 -10.225059 -23.341940 0.000000 0.000000 0.000000 -7.125000 0.000000 0.000000 -20.477459 52.409810 3.868277 0.000000 0.000000 0.000000 0.741275 7.972152 36.480310 -24.904965 -36.106741 -8.233859 -27.974106 19.868117 20.390623 0.000000 0.000000 0.000000 7.125000 0.000000 0.000000 0.544055 52.804492 -0.104534
